<?xml version="1.0" encoding="UTF-8"?>
<svg id="Layer_1" data-name="Layer 1" xmlns="http://www.w3.org/2000/svg" viewBox="0 0 905 990">
  <defs>
    <style>
      .cls-1 {
        fill: #b3b3b3;
      }

      .cls-1, .cls-2, .cls-3 {
        stroke: #ccc;
        stroke-miterlimit: 10;
      }

      .cls-4 {
        fill: #ccc;
      }

      .cls-2 {
        fill: none;
        stroke-width: 2px;
      }

      .cls-5 {
        fill: #2e3192;
      }

      .cls-3 {
        fill: #e6e6e6;
      }

      .cls-6 {
        fill: #c1272d;
      }
    </style>
  </defs>
  <g>
    <path class="cls-6" d="M374,614.5c-30.05,0-54.5-24.45-54.5-54.5s24.45-54.5,54.5-54.5,54.5,24.45,54.5,54.5-24.45,54.5-54.5,54.5Z"/>
    <path class="cls-4" d="M374,506c29.78,0,54,24.22,54,54s-24.22,54-54,54-54-24.22-54-54,24.22-54,54-54M374,505c-30.38,0-55,24.62-55,55s24.62,55,55,55,55-24.62,55-55-24.62-55-55-55h0Z"/>
  </g>
  <g>
    <path class="cls-6" d="M374,504.5c-30.05,0-54.5-24.45-54.5-54.5s24.45-54.5,54.5-54.5,54.5,24.45,54.5,54.5-24.45,54.5-54.5,54.5Z"/>
    <path class="cls-4" d="M374,396c29.78,0,54,24.22,54,54s-24.22,54-54,54-54-24.22-54-54,24.22-54,54-54M374,395c-30.38,0-55,24.62-55,55s24.62,55,55,55,55-24.62,55-55-24.62-55-55-55h0Z"/>
  </g>
  <g>
    <path class="cls-5" d="M143,504.5c-30.05,0-54.5-24.45-54.5-54.5s24.45-54.5,54.5-54.5,54.5,24.45,54.5,54.5-24.45,54.5-54.5,54.5Z"/>
    <path class="cls-4" d="M143,396c29.78,0,54,24.22,54,54s-24.22,54-54,54-54-24.22-54-54,24.22-54,54-54M143,395c-30.38,0-55,24.62-55,55s24.62,55,55,55,55-24.62,55-55-24.62-55-55-55h0Z"/>
  </g>
  <g>
    <path class="cls-5" d="M143,614.5c-30.05,0-54.5-24.45-54.5-54.5s24.45-54.5,54.5-54.5,54.5,24.45,54.5,54.5-24.45,54.5-54.5,54.5Z"/>
    <path class="cls-4" d="M143,506c29.78,0,54,24.22,54,54s-24.22,54-54,54-54-24.22-54-54,24.22-54,54-54M143,505c-30.38,0-55,24.62-55,55s24.62,55,55,55,55-24.62,55-55-24.62-55-55-55h0Z"/>
  </g>
  <circle class="cls-1" cx="325" cy="306" r="25.5"/>
  <circle class="cls-1" cx="377" cy="735" r="25.5"/>
  <circle class="cls-3" cx="429.5" cy="135.5" r="119"/>
  <circle class="cls-3" cx="758.5" cy="853.5" r="119"/>
  <line class="cls-2" x1="689.5" y1="950.5" x2="360.5" y2="754.5"/>
  <line class="cls-2" x1="355.5" y1="721.5" x2="425.5" y2="578.5"/>
  <line class="cls-2" x1="310" y1="136" x2="300" y2="306"/>
  <line class="cls-2" x1="325" y1="331" x2="396" y2="399"/>
  <line class="cls-2" x1="374" y1="505" x2="34" y2="505"/>
</svg>